<?xml version="1.0" encoding="UTF-8" standalone="no"?>
<svg
   xmlns:dc="http://purl.org/dc/elements/1.1/"
   xmlns:cc="http://creativecommons.org/ns#"
   xmlns:rdf="http://www.w3.org/1999/02/22-rdf-syntax-ns#"
   xmlns:svg="http://www.w3.org/2000/svg"
   xmlns="http://www.w3.org/2000/svg"
   xmlns:xlink="http://www.w3.org/1999/xlink"
   xmlns:sodipodi="http://sodipodi.sourceforge.net/DTD/sodipodi-0.dtd"
   xmlns:inkscape="http://www.inkscape.org/namespaces/inkscape"
   version="1.1"
   id="svg5033"
   xml:space="preserve"
   width="1920"
   height="1080"
   viewBox="0 0 1920 1080"
   sodipodi:docname="gruvbox-light-apple-scalable.svg"
   inkscape:version="1.0.1 (3bc2e813f5, 2020-09-07)"
   inkscape:export-filename="/home/fjall/1577101987penguin-silhouette-3-freesvg.org3.png"
   inkscape:export-xdpi="96"
   inkscape:export-ydpi="96"><metadata
     id="metadata5039"><rdf:RDF><cc:Work
         rdf:about=""><dc:format>image/svg+xml</dc:format><dc:type
           rdf:resource="http://purl.org/dc/dcmitype/StillImage" /><dc:title></dc:title></cc:Work></rdf:RDF></metadata><defs
     id="defs5037"><marker
       style="overflow:visible"
       id="Arrow1Lstart"
       refX="0"
       refY="0"
       orient="auto"
       inkscape:stockid="Arrow1Lstart"
       inkscape:isstock="true"><path
         transform="matrix(0.8,0,0,0.8,10,0)"
         style="fill:#c53d3d;fill-opacity:0.795004;fill-rule:evenodd;stroke:none;stroke-width:1pt;stroke-opacity:1"
         d="M 0,0 5,-5 -12.5,0 5,5 Z"
         id="path2155" /></marker><clipPath
       clipPathUnits="userSpaceOnUse"
       id="clipPath5049"><path
         d="M 0,600 H 600 V 0 H 0 Z"
         id="path5047"
         inkscape:connector-curvature="0" /></clipPath><linearGradient
       x1="112.49854"
       y1="6.1372099"
       x2="112.49853"
       y2="129.3468"
       id="path1082_2_"
       gradientUnits="userSpaceOnUse"
       gradientTransform="translate(287,-83)"><stop
         id="stop193"
         style="stop-color:#ffffff;stop-opacity:0"
         offset="0" /><stop
         id="stop195"
         style="stop-color:#ffffff;stop-opacity:0.27450982"
         offset="1" /><midPointStop
         offset="0"
         style="stop-color:#FFFFFF"
         id="midPointStop197" /><midPointStop
         offset="0.5"
         style="stop-color:#FFFFFF"
         id="midPointStop199" /><midPointStop
         offset="1"
         style="stop-color:#000000"
         id="midPointStop201" /></linearGradient><linearGradient
       x1="541.33502"
       y1="104.50665"
       x2="606.91248"
       y2="303.14029"
       id="linearGradient2544"
       xlink:href="#path1082_2_"
       gradientUnits="userSpaceOnUse"
       gradientTransform="matrix(-0.3937741,0,0,0.393752,357.51969,122.00151)" /><linearGradient
       id="linearGradient3388"><stop
         id="stop3390"
         style="stop-color:#000000;stop-opacity:0"
         offset="0" /><stop
         id="stop3392"
         style="stop-color:#000000;stop-opacity:0.37113401"
         offset="1" /></linearGradient><linearGradient
       x1="490.72305"
       y1="237.72447"
       x2="490.72305"
       y2="183.9644"
       id="linearGradient4416"
       xlink:href="#linearGradient3388"
       gradientUnits="userSpaceOnUse"
       gradientTransform="matrix(0.749107,0,0,0.749107,-35.459862,91.44108)" /></defs><sodipodi:namedview
     pagecolor="#ffffff"
     bordercolor="#666666"
     borderopacity="1"
     objecttolerance="10"
     gridtolerance="10"
     guidetolerance="10"
     inkscape:pageopacity="0"
     inkscape:pageshadow="2"
     inkscape:window-width="1920"
     inkscape:window-height="1052"
     id="namedview5035"
     showgrid="false"
     inkscape:zoom="0.34177049"
     inkscape:cx="355.11436"
     inkscape:cy="641.03721"
     inkscape:window-x="0"
     inkscape:window-y="28"
     inkscape:window-maximized="1"
     inkscape:current-layer="g5041"
     inkscape:document-rotation="0"
     inkscape:snap-global="false"
     showguides="true"
     inkscape:guide-bbox="true"
     fit-margin-top="0"
     fit-margin-left="0"
     fit-margin-right="0"
     fit-margin-bottom="0"><inkscape:grid
       type="xygrid"
       id="grid997"
       originx="725.49429"
       originy="-129.70111" /></sodipodi:namedview><g
     id="g5041"
     inkscape:groupmode="layer"
     inkscape:label="penguin-clipart-publicdomainvectors.org"
     transform="matrix(1.3333333,0,0,-1.3333333,725.49429,670.29889)"><g
       id="g956"
       transform="translate(46.384326,0.71141601)" /><g
       id="g944"
       transform="translate(96.725563,0.71141601)" /><g
       id="g971"
       inkscape:export-filename="/home/fjall/g97211.png"
       inkscape:export-xdpi="128"
       inkscape:export-ydpi="128"><rect
         style="fill:#ebdbb2;fill-opacity:1;fill-rule:nonzero;stroke-width:78.7272;stroke-linecap:round;stroke-linejoin:round;paint-order:stroke markers fill"
         id="rect835"
         width="1440"
         height="810"
         x="-544.12073"
         y="-502.72418"
         transform="scale(1,-1)" /><path
         id="rect2943"
         style="fill:#8ec07c;fill-opacity:1;stroke:none;stroke-width:4.93465;stroke-linejoin:round;stroke-miterlimit:4;stroke-dasharray:none;stroke-opacity:1;paint-order:stroke markers fill"
         d="M -544.12073,178.26567 V 17.182665 H 505.94665 c -9.51983,13.735095 -17.3937,29.550885 -23.60738,47.496091 -6.91162,20.13159 -10.3755,39.625424 -10.3755,58.498534 0,21.25323 4.52468,39.62692 13.56735,55.08838 z" /><path
         id="rect2945"
         style="fill:#83a598;fill-opacity:1;stroke:none;stroke-width:4.27354;stroke-linejoin:round;stroke-miterlimit:4;stroke-dasharray:none;stroke-opacity:1;paint-order:stroke markers fill"
         d="M -544.12073,137.99565 V 17.182665 H 505.94665 c -9.51983,13.735095 -17.3937,29.550885 -23.60738,47.496091 -6.91162,20.13159 -10.3755,39.625424 -10.3755,58.498534 0,5.10748 0.2694,10.04338 0.79103,14.81836 z" /><path
         id="path940"
         style="fill:#fabd2f;fill-opacity:1;stroke:none;stroke-width:3.48934;stroke-linejoin:round;stroke-miterlimit:4;stroke-dasharray:none;stroke-opacity:1;paint-order:stroke markers fill"
         d="M -544.12073,97.724169 V 17.182665 H 505.94665 c -9.51983,13.735095 -17.3937,29.550885 -23.60738,47.496091 -3.8493,11.211885 -6.6255,22.226063 -8.33347,33.045413 z" /><path
         id="path949"
         style="fill:#fb4934;fill-opacity:1;stroke:none;stroke-width:2.46732;stroke-linejoin:round;stroke-miterlimit:4;stroke-dasharray:none;stroke-opacity:1;paint-order:stroke markers fill"
         d="M -544.12073,57.454148 V 17.182665 H 505.94665 c -8.22083,11.860912 -15.2136,25.27464 -20.96918,40.271483 z" /><path
         d="M 730.39962,51.078928 C 725.8057,40.466043 720.36802,30.696944 714.06779,21.715375 705.47998,9.4711932 698.44849,0.99589363 693.02954,-3.7105241 c -8.4003,-7.7252749 -17.40061,-11.6816679 -27.03846,-11.9066749 -6.91899,0 -15.26304,1.968822 -24.97588,5.9627115 -9.74472,3.9751412 -18.70005,5.9439634 -26.88845,5.9439634 -8.58781,0 -17.79813,-1.9688222 -27.64974,-5.9439634 -9.8666,-3.9938895 -17.81501,-6.0752105 -23.89209,-6.2814695 -9.24221,-0.39377 -18.45441,3.675131 -27.64973,12.2254329 -5.86896,5.1189267 -13.20985,13.8942461 -22.00391,26.3259291 -9.43533,13.275477 -17.19248,28.669782 -23.26958,46.220401 -6.50835,18.956927 -9.77097,37.313834 -9.77097,55.085714 0,20.35758 4.39891,37.91571 13.20984,52.62936 6.92463,11.81855 16.13683,21.14138 27.66662,27.98537 11.52978,6.84398 23.98772,10.33161 37.40381,10.55475 7.3409,0 16.96749,-2.27071 28.93041,-6.73337 11.92917,-4.47765 19.58882,-6.74836 22.94707,-6.74836 2.51071,0 11.01976,2.65509 25.44464,7.9484 13.64111,4.90893 25.15402,6.9415 34.58561,6.14084 25.55716,-2.06257 44.75783,-12.1373 57.52704,-30.28794 -22.85707,-13.84924 -34.16371,-33.24681 -33.9387,-58.13081 0.20626,-19.38256 7.23775,-35.511886 21.05699,-48.31859 6.26272,-5.943964 13.25672,-10.537873 21.03825,-13.800495 -1.68756,-4.893919 -3.46887,-9.581589 -5.36269,-14.081747 z M 671.78504,281.73086 c 0,-15.19199 -5.5502,-29.37667 -16.61309,-42.50588 -13.35047,-15.60806 -29.49855,-24.62712 -47.0098,-23.20395 -0.223,1.82256 -0.3525,3.74075 -0.3525,5.75645 0,14.58427 6.34897,30.19232 17.62374,42.95402 5.62896,6.46149 12.78796,11.8341 21.46952,16.11995 8.6628,4.2219 16.85685,6.55674 24.56336,6.9565 0.22501,-2.03087 0.31877,-4.06195 0.31877,-6.07689 z"
         id="path4"
         style="fill:#282828;fill-opacity:1;stroke-width:1.87506"
         inkscape:connector-curvature="0" /></g></g></svg>
